HIERARCHY
ROOT Hips
{
	OFFSET -3.958830 18.904000 13.208200
	CHANNELS 6 Xposition Yposition Zposition Zrotation Yrotation Xrotation 
	JOINT LHipJoint
	{
		OFFSET 0.000000 0.000000 0.000000
		CHANNELS 3 Zrotation Yrotation Xrotation
		JOINT LeftUpLeg
		{
			OFFSET 1.800000 -1.400000 0.085000
			CHANNELS 3 Zrotation Yrotation Xrotation
			JOINT LeftLeg
			{
				OFFSET 2.215000 -6.000000 0.000000
				CHANNELS 3 Zrotation Yrotation Xrotation
				JOINT LeftFoot
				{
					OFFSET 2.500000 -6.900000 0.000000
					CHANNELS 3 Zrotation Yrotation Xrotation
					JOINT LeftToeBase
					{
						OFFSET 0.200000 -0.500000 1.950000
						CHANNELS 3 Zrotation Yrotation Xrotation
						End Site
						{
							OFFSET 0.000000 0.000000 0.000000
						}
					}
				}
			}
		}
	}
	JOINT RHipJoint
	{
		OFFSET 0.000000 0.000000 0.000000
		CHANNELS 3 Zrotation Yrotation Xrotation
		JOINT RightUpLeg
		{
			OFFSET -1.800000 -1.400000 0.085000
			CHANNELS 3 Zrotation Yrotation Xrotation
			JOINT RightLeg
			{
				OFFSET -2.215000 -6.000000 0.000000
				CHANNELS 3 Zrotation Yrotation Xrotation
				JOINT RightFoot
				{
					OFFSET -2.500000 -6.900000 0.000000
					CHANNELS 3 Zrotation Yrotation Xrotation
					JOINT RightToeBase
					{
						OFFSET -0.200000 -0.500000 1.950000
						CHANNELS 3 Zrotation Yrotation Xrotation
						End Site
						{
							OFFSET 0.000000 0.000000 0.000000
						}
					}
				}
			}
		}
	}
	JOINT LowerBack
	{
		OFFSET 0.000000 0.000000 0.000000
		CHANNELS 3 Zrotation Yrotation Xrotation
		JOINT Spine
		{
			OFFSET -0.087000 1.940000 -0.288900
			CHANNELS 3 Zrotation Yrotation Xrotation
			JOINT Spine1
			{
				OFFSET 0.000000 1.950000 0.060000
				CHANNELS 3 Zrotation Yrotation Xrotation
				JOINT Neck
				{
					OFFSET 0.000000 0.000000 0.000000
					CHANNELS 3 Zrotation Yrotation Xrotation
					JOINT Neck1
					{
						OFFSET 0.000000 1.600000 0.340000
						CHANNELS 3 Zrotation Yrotation Xrotation
						JOINT Head
						{
							OFFSET 0.000000 1.667000 -0.240000
							CHANNELS 3 Zrotation Yrotation Xrotation
							End Site
							{
								OFFSET 0.000000 0.000000 0.000000
							}
						}
					}
				}
				JOINT LeftShoulder
				{
					OFFSET 0.000000 0.000000 0.000000
					CHANNELS 3 Zrotation Yrotation Xrotation
					JOINT LeftArm
					{
						OFFSET 2.700000 1.550000 -0.730000
						CHANNELS 3 Zrotation Yrotation Xrotation
						JOINT LeftForeArm
						{
							OFFSET 5.450000 0.000000 0.000000
							CHANNELS 3 Zrotation Yrotation Xrotation
							JOINT LeftHand
							{
								OFFSET 3.450000 0.000000 0.000000
								CHANNELS 3 Zrotation Yrotation Xrotation
								JOINT LeftHandIndex1
								{
									OFFSET 0.750000 0.000000 0.000000
									CHANNELS 3 Zrotation Yrotation Xrotation
									End Site
									{
										OFFSET 0.000000 0.000000 0.000000
									}
								}
							}
						}
					}
				}
				JOINT RightShoulder
				{
					OFFSET 0.000000 0.000000 0.000000
					CHANNELS 3 Zrotation Yrotation Xrotation
					JOINT RightArm
					{
						OFFSET -2.700000 1.550000 -0.730000
						CHANNELS 3 Zrotation Yrotation Xrotation
						JOINT RightForeArm
						{
							OFFSET -5.450000 0.000000 0.000000
							CHANNELS 3 Zrotation Yrotation Xrotation
							JOINT RightHand
							{
								OFFSET -3.450000 0.000000 0.000000
								CHANNELS 3 Zrotation Yrotation Xrotation
								JOINT RightHandIndex1
								{
									OFFSET -0.750000 0.000000 0.000000
									CHANNELS 3 Zrotation Yrotation Xrotation
									End Site
									{
										OFFSET 0.000000 0.000000 0.000000
									}
								}
							}
						}
					}
				}
			}
		}
	}
}
MOTION
Frames: 8
Frame Time: 0.016667
0.665950 17.228270 -2.965980 -1.450525 8.043747 3.827105 -15.117904 12.923272 2.780544 1.373915 -3.603336 -17.336876 -3.881735 7.710259 31.477761 -0.103212 6.309403 2.756020 -0.395180 -0.930450 -0.377430 18.364473 -11.093370 2.828211 -1.015251 2.648647 -21.906641 7.069225 -5.672134 17.992763 0.286437 -3.569786 3.366437 -0.428100 1.026180 0.328450 -3.915422 -0.436023 -6.796690 6.888164 0.797889 3.489552 -0.435393 0.706925 3.318209 1.523725 1.822408 -6.151729 1.848964 -6.151148 29.988050 -4.813810 -5.252970 13.970010 -11.336219 6.069639 1.447176 -68.172363 -3.817983 -7.889090 -11.158538 -40.541023 0.958141 -4.296832 3.066506 0.117660 0.692900 -0.673670 0.164880 8.493918 -6.775057 1.742764 63.235735 -2.069119 -10.426651 7.508890 22.027927 -0.587581 2.119392 -1.393837 -0.422000 0.165120 0.443120 -0.037930 
0.692040 17.117130 -3.004950 -1.551303 8.922177 3.966966 -15.113737 12.964094 2.780292 1.678795 -3.672835 -16.905058 -3.833600 7.860138 32.271812 -0.068804 6.455689 2.708931 -0.362920 -0.891900 -0.364010 18.363350 -11.011039 2.930700 -1.077224 3.393759 -25.319804 6.927672 -6.371050 22.947306 0.227071 -3.874890 3.227389 -0.409840 1.016970 0.312830 -3.939995 -0.571966 -6.911982 7.440878 0.412782 4.371952 -1.196935 0.560644 2.858748 1.478374 1.087785 -6.280043 0.510062 -6.251775 29.783615 -4.072410 -6.244140 13.085380 -11.871011 5.567218 1.438789 -68.214250 -4.867615 -7.192411 -12.772791 -43.535919 1.785819 -4.243804 3.096795 0.134300 0.661710 -0.656010 0.181770 8.947485 -5.799461 1.951389 61.696003 -2.663270 -9.850458 6.915857 18.355402 -0.707304 2.167716 -1.357198 -0.418460 0.191220 0.423730 -0.027960 
0.711440 17.002060 -3.053230 -1.257107 10.533937 4.176469 -15.157452 12.972096 2.809613 1.391312 -4.047655 -17.051600 -3.231435 7.760584 33.480110 -0.072720 6.587080 2.666936 -0.354670 -0.878560 -0.381770 18.331994 -10.811377 3.096355 -2.273772 4.082666 -29.474447 7.581031 -7.773631 29.006401 0.119591 -4.592855 2.958473 -0.388520 1.026240 0.265220 -3.857907 -0.874154 -7.091667 6.965579 -0.194894 5.612539 -1.565999 0.203889 2.017449 1.426754 0.593919 -6.308093 -0.446028 -6.230706 29.615085 -2.926750 -7.228110 12.434410 -12.910155 5.179297 1.263393 -67.565394 -5.838558 -6.304579 -14.894678 -47.025242 3.059739 -4.201775 3.107419 0.158670 0.639260 -0.670380 0.194450 10.034459 -5.136869 2.067641 59.588757 -3.579698 -9.357016 6.656238 15.407905 -0.720205 2.188203 -1.308577 -0.451070 0.239980 0.426190 -0.029870 
0.724890 16.900190 -3.104980 -0.661559 12.069107 3.936314 -15.218276 12.947207 2.850661 0.823610 -4.457897 -16.916394 -2.783762 7.701798 34.769938 -0.008493 6.668877 2.605533 -0.293010 -0.793720 -0.343410 18.287116 -10.543257 3.379399 -4.330689 4.594362 -34.002950 8.539592 -9.875814 35.998440 -0.138691 -5.708302 2.517859 -0.376080 0.945810 0.256250 -3.722073 -1.216870 -7.428777 5.886937 -0.679139 7.798771 -1.962428 -0.020392 0.739740 1.587834 0.279487 -6.580981 -1.411411 -6.267703 31.252262 -1.502330 -8.189110 10.876600 -14.557505 4.423769 1.123767 -66.337750 -6.517095 -5.784490 -16.895515 -50.895399 4.498814 -4.097382 3.138055 0.212880 0.555180 -0.588970 0.199260 11.383993 -4.097973 2.483318 57.955837 -4.959018 -9.229767 6.012744 12.986698 -0.685455 2.246012 -1.252528 -0.406440 0.236120 0.387310 -0.022970 
0.732740 16.806130 -3.162140 -0.027701 13.413288 3.060617 -15.297108 12.903324 2.897618 0.393800 -4.970734 -16.559277 -2.625689 7.816634 36.410420 0.036835 6.841067 2.485180 -0.192790 -0.673140 -0.254270 18.230466 -10.196376 3.740599 -7.136896 4.694537 -38.235675 10.064753 -12.785525 43.052344 -0.511908 -7.131360 1.987850 -0.344670 0.812760 0.243800 -3.529300 -1.656604 -7.881855 4.480035 -1.166729 10.911038 -2.194971 -0.289355 -0.507176 1.945224 0.037101 -7.079887 -2.544942 -5.997033 34.437925 0.165290 -8.751600 7.712850 -16.458407 3.128643 1.031348 -64.744457 -7.057821 -5.643481 -18.731007 -54.647566 5.868639 -3.965512 3.128295 0.329080 0.433200 -0.461130 0.189740 12.711472 -2.532830 3.149816 56.499189 -6.254760 -9.177707 5.502024 10.873262 -0.569332 2.283547 -1.164904 -0.365060 0.242180 0.338700 -0.047600 
0.735530 16.728000 -3.224350 0.314289 14.849611 1.459063 -15.368071 12.892806 2.945650 0.461269 -5.556083 -15.984842 -2.623944 8.051485 38.345332 0.087632 7.077075 2.328940 -0.061840 -0.514340 -0.118510 18.170628 -9.868756 4.082157 -9.919413 4.272552 -41.395759 11.417040 -15.920090 49.300328 -0.935492 -8.515404 1.496839 -0.298110 0.633970 0.225220 -3.345881 -2.135486 -8.360997 3.378842 -1.820948 14.948409 -2.616565 -0.755241 -1.609586 2.589859 -0.115925 -7.901391 -3.702723 -5.562361 38.835270 1.715860 -8.692410 3.171650 -18.790243 1.101372 1.123570 -62.402155 -7.288917 -6.017375 -20.530245 -59.263098 7.381688 -3.803063 3.106868 0.475900 0.280800 -0.294420 0.171240 13.928365 -0.305051 4.220273 55.426344 -7.640380 -9.578409 5.116091 10.873060 -0.429915 2.292996 -1.074390 -0.317820 0.251000 0.268680 -0.090180 
0.738220 16.659370 -3.290850 0.056904 16.063823 -0.670326 -15.395685 12.875694 2.991487 1.163804 -6.334456 -15.481088 -2.883581 8.519536 40.947328 0.171593 7.490628 2.114444 0.073440 -0.351840 -0.003940 18.155982 -9.572546 4.343896 -11.926963 3.660326 -43.599417 12.155825 -18.932174 55.049923 -1.357600 -9.784954 1.073036 -0.244270 0.473670 0.216140 -3.290424 -2.583671 -8.755386 3.439624 -2.724741 19.237013 -3.549185 -1.374883 -2.159509 3.173623 -0.786037 -8.900780 -5.832231 -4.494935 43.268523 4.171690 -8.758810 -1.808660 -20.964659 -1.494412 1.369096 -60.031525 -7.620735 -6.788567 -21.763051 -63.681426 8.477162 -3.639658 3.112181 0.614090 0.131940 -0.138600 0.165840 14.993135 2.747210 5.603002 54.597421 -8.959944 -10.006422 5.042169 10.585560 -0.312052 2.301386 -1.008359 -0.268170 0.253620 0.200590 -0.119090 
0.734530 16.594370 -3.344060 -0.563804 16.762952 -2.514527 -15.385906 12.799270 3.033288 2.381338 -7.179025 -15.551287 -3.641555 9.327166 43.563245 0.263605 8.037820 1.896715 0.146010 -0.265490 0.064870 18.194087 -9.322957 4.503371 -12.769163 3.336146 -45.407990 11.556564 -21.081608 60.484399 -1.685798 -10.820026 0.762037 -0.208150 0.399030 0.186770 -3.352300 -2.889708 -8.994505 4.293744 -3.822454 22.433288 -4.971044 -2.090948 -1.996489 3.552117 -1.794148 -9.675889 -8.481038 -3.238606 45.911788 6.234970 -8.848250 -5.233100 -22.275787 -3.715837 1.579044 -57.676118 -8.065080 -7.470828 -22.812719 -67.219635 9.399412 -3.541881 3.094350 0.701800 0.040020 -0.059510 0.160410 15.495927 5.425039 6.798448 54.259828 -9.925070 -10.645708 5.668190 11.345204 -0.265384 2.289066 -0.954282 -0.262620 0.291720 0.167000 -0.136650 
